<?xml version="1.0" encoding="UTF-8"?>
<!DOCTYPE svg PUBLIC "-//W3C//DTD SVG 1.1//EN" "http://www.w3.org/Graphics/SVG/1.1/DTD/svg11.dtd">
<!-- Creator: CorelDRAW 2019 (64-Bit) -->
<svg xmlns="http://www.w3.org/2000/svg" xml:space="preserve" width="5146px" height="1080px" version="1.1" style="shape-rendering:geometricPrecision; text-rendering:geometricPrecision; image-rendering:optimizeQuality; fill-rule:evenodd; clip-rule:evenodd"
viewBox="0 0 5146 1079.94"
 xmlns:xlink="http://www.w3.org/1999/xlink"
 xmlns:xodm="http://www.corel.com/coreldraw/odm/2003">
 <defs>
  <style type="text/css">
   <![CDATA[
    .fil2 {fill:#DAB96B}
    .fil1 {fill:#E62129}
    .fil0 {fill:#093F7A}
   ]]>
  </style>
 </defs>
 <g id="Layer_x0020_1">
  <metadata id="CorelCorpID_0Corel-Layer"/>
  <path class="fil0" d="M190.48 98.49l237.54 0c52.96,0 90.66,2.87 113.1,8.47 29.49,7.11 52.02,20.88 67.59,41.46 15.42,20.57 22.55,43.72 21.39,69.74 -0.96,21.34 -8.44,43.13 -22.44,65.22 -14.01,22.24 -34.19,40.39 -60.7,54.77 -26.52,14.37 -66.75,27.53 -120.85,39.64 54.97,15.73 92.51,35.71 113.05,60.22 20.53,24.66 30,53.1 28.54,85.64 -1.36,30.41 -13.3,60.51 -35.96,90.17 -22.67,29.66 -51.78,51.44 -87.65,65.21 -35.72,13.77 -100.48,20.58 -194.14,20.58l-249.95 0 6.48 -16.34c24.21,0 41.71,-2.27 52.35,-6.66 10.64,-4.54 19.42,-11.35 26.19,-20.73 6.77,-9.23 15.06,-28.75 25.01,-58.25l123.82 -369.63c12.57,-37.52 19.15,-62.64 19.72,-75.35 0.46,-10.44 -3.39,-18.91 -11.86,-25.72 -8.47,-6.81 -27.21,-10.74 -56.51,-11.95l5.28 -16.49zm124.13 265.53c40.27,-0.6 72.18,-6.96 96.02,-19.07 23.69,-12.1 43.19,-31.92 58.5,-59.61 15.15,-27.53 23.44,-53.71 24.53,-78.22 1.03,-23 -5.39,-41.76 -19.26,-56.29 -13.73,-14.52 -32.78,-21.48 -57.02,-20.88l-24.55 0.91 -78.22 233.16zm-12.08 33.29l-88.69 267.35c14.81,0.45 25.84,0.75 33.25,0.75 65.82,0 112.49,-18.3 139.85,-55.07 27.37,-36.77 42,-76.26 43.88,-118.17 0.9,-20.12 -3.3,-37.97 -12.44,-53.41 -9.29,-15.58 -21.52,-26.32 -36.98,-32.37 -15.31,-6.06 -41.66,-9.08 -78.87,-9.08zm778.95 -102.43l-99.14 294.73 -10.54 36.01c-1.1,4.39 -1.71,7.72 -1.8,9.69 -0.16,3.63 1.07,6.65 3.37,9.38 2.45,2.57 4.96,3.93 7.54,3.93 6.2,0 15.03,-4.69 26.36,-14.22 4.7,-3.78 15.91,-17.4 33.74,-40.7l15.23 8.02c-22.75,38.27 -46.39,66.27 -70.94,83.97 -24.54,17.55 -50.66,26.33 -78.04,26.33 -16.95,0 -29.61,-4.39 -38,-13.02 -8.53,-8.77 -12.43,-19.82 -11.83,-33.13 0.51,-11.5 6.16,-32.83 17.1,-64.15l12.2 -36.01c-36.98,58.85 -71.68,100.46 -104.4,124.97 -18.94,14.23 -38.78,21.34 -59.51,21.34 -27.23,0 -46.4,-11.2 -57.51,-33.44 -11.1,-22.39 -16.03,-47.51 -14.77,-75.65 1.86,-41.61 16.72,-89.42 44.55,-143.29 27.84,-54.01 63.21,-97.28 105.99,-130.12 35.26,-27.23 67.79,-40.85 97.6,-40.85 16.49,0 29.59,4.84 39.3,14.37 9.55,9.69 16.18,27.24 19.73,52.66l18.49 -54.62 105.28 -6.2zm-145.55 84.27c1.07,-23.91 -1.93,-41.3 -8.87,-51.9 -4.96,-7.41 -12.06,-11.04 -21.14,-11.04 -9.23,0 -18.81,4.39 -29.04,13.31 -20.64,18.31 -43.64,55.38 -69,111.51 -25.35,55.99 -39.01,104.25 -40.84,145.1 -0.71,15.74 1.37,26.93 6.2,33.89 4.83,6.96 10.43,10.44 16.63,10.44 13.31,0 27.13,-7.71 41.42,-22.99 20.36,-21.94 39.26,-48.72 56.26,-80.35 30.32,-55.52 46.45,-104.85 48.38,-147.97zm407.43 -90.48l-63.59 190.19c39.4,-55.53 68.79,-93.51 88.01,-113.93 28.26,-29.51 52.31,-49.63 72.3,-60.22 20,-10.74 38.54,-16.04 55.64,-16.04 15.43,0 28.34,5.75 38.72,17.1 10.39,11.35 15.32,26.17 14.5,44.48 -0.74,16.64 -5.27,36.77 -13.44,60.37l-65.22 189.28c-5.43,16.49 -8.33,27.23 -8.56,32.38 -0.13,2.87 0.96,5.6 2.98,7.87 2.16,2.42 4.37,3.63 6.8,3.63 2.87,0 6.1,-1.21 9.39,-3.63 10.82,-8.48 21.8,-20.58 33.09,-36.32 2.91,-4.08 7.42,-10.29 13.7,-18.61l16.48 10.29c-46.84,72.93 -94.01,109.4 -141.97,109.4 -18.31,0 -32.48,-4.7 -42.34,-14.23 -9.87,-9.38 -14.48,-21.18 -13.85,-35.4 0.56,-12.41 4.87,-30.87 13.08,-55.38l63.85 -189.28c4.34,-12.41 6.72,-21.64 6.98,-27.54 0.14,-3.17 -1.09,-6.05 -3.55,-8.62 -2.6,-2.57 -5.58,-3.78 -9.21,-3.78 -11.19,0 -25.16,7.71 -41.74,23.15 -42.59,38.88 -84.68,96.98 -126.26,174.15l-42.21 131.63 -113.02 0 95.66 -284.6c9.27,-27.99 14.1,-47.96 14.63,-59.77 0.23,-5.14 -0.8,-9.23 -2.92,-12.71 -2.27,-3.32 -5.93,-6.05 -11.14,-8.01 -5.36,-1.82 -15.3,-2.88 -30.13,-2.88l5.75 -16.79 150.51 -26.18 27.08 0zm567.13 -203.8l-141.03 419.26 105.58 -93.96 35.09 -30.11c10.29,-10.14 17.32,-18.61 21.58,-25.72 2.47,-4.54 3.86,-8.63 4.03,-12.41 0.28,-6.2 -2.36,-11.35 -8.08,-15.58 -5.71,-4.09 -19.96,-6.96 -42.59,-8.32l5.6 -16.95 180.35 0 -5.15 16.95c-21.55,4.99 -39.06,10.74 -52.66,17.24 -10.52,5 -23.6,13.32 -39.25,24.82 -23.17,17.4 -39.96,30.86 -50.06,40.24l-20.34 18.31 21.61 122.25c8.17,47.36 14.66,74.59 19.32,82.01 2.98,4.39 6.82,6.66 11.21,6.66 10.28,0 23.08,-12.11 38.39,-36.32 2.26,-3.32 5.19,-7.86 9.09,-13.76l15.88 10.13c-23.94,41.46 -50.32,72.93 -79.12,94.41 -19.26,14.53 -36.38,21.79 -51.51,21.79 -14.98,0 -27.29,-5.44 -36.95,-16.19 -9.5,-10.74 -18.37,-39.03 -26.31,-84.88l-17.73 -100.61 -50.67 43.42 -51.14 152.06 -113.02 0 169.63 -500.51c7.15,-21.18 10.82,-35.56 11.15,-42.97 0.31,-6.81 -0.81,-12.25 -3.64,-16.64 -2.68,-4.24 -6.62,-7.42 -11.83,-9.54 -5.05,-1.96 -15.29,-3.02 -30.58,-3.02l4.68 -16.49 151.84 -25.57 26.63 0z"/>
  <path class="fil0" d="M3292.21 72.19l280.34 0c34.12,0 61.94,1.55 83.9,4.53 21.81,3.11 42.56,10.76 62.4,23.07 19.69,12.32 34.96,28.6 45.53,48.71 10.56,20.25 15.24,42.34 14.16,66.4 -1.38,30.73 -11.73,59.61 -30.94,86.94 -19.34,27.18 -49.1,46.86 -89.15,59.04l-0.08 1.7c64.11,19.68 94.62,62.3 91.67,128.14 -2.15,48.13 -24.07,91.74 -66.03,130.82 -41.82,39.22 -99.9,58.76 -174.37,58.76l-374.5 0 157.07 -608.11zm127.12 237.72l63.85 0c27.61,0 49.08,-1.98 64.26,-5.81 15.33,-3.96 27.86,-12.03 37.62,-24.35 9.9,-12.32 14.98,-24.64 15.53,-37.09 0.67,-14.87 -3.76,-26.48 -13.58,-34.83 -9.68,-8.36 -29.32,-12.46 -58.91,-12.46l-80 0 -28.77 114.54zm-61.85 239.71l100.38 0c70.8,0 107.25,-23.51 109.35,-70.52 0.74,-16.56 -3.77,-29.59 -13.53,-39.21 -9.77,-9.49 -30.51,-14.31 -62.09,-14.31l-101.94 0 -32.17 124.04zm1127.31 -477.43l-37.84 149.37 -197.37 0 -119.8 458.74 -188.73 0 119.37 -458.74 -188.73 0 38.12 -149.37 574.98 0zm661.21 0l-157.92 608.11 -175.85 0 -134.82 -353.4 -1.7 0 -91.29 353.4 -176.7 0 157.92 -608.11 175.85 0 133.93 354.24 1.7 0 92.18 -354.24 176.7 0z"/>
  <path class="fil1" d="M5036.72 739.74c-156.13,6.24 -1299,56.2 -1498.84,87.43 -199.85,31.22 -331,31.22 -380.96,62.45 -49.96,31.23 -87.43,56.21 -24.98,112.41 62.45,56.21 99.92,56.21 156.13,68.7 56.21,12.49 106.17,18.74 174.86,-24.98 68.7,-43.72 156.13,-68.7 299.77,-106.17 418.43,-93.68 1274.02,-199.84 1274.02,-199.84z"/>
  <path class="fil2" d="M2395.32 517.53l72.56 -45.66 0 87.22 -72.2 46.98 -1.08 -0.73 0.72 -87.81zm145.57 -91.61l72.04 -45.33 70.94 44.88 0 83.7 -67.89 -46.44 -75.09 48.86 0 -85.67zm213.61 44.24l73.72 46.64 0 91.12 -73.72 -50.43 0 -87.33zm137.63 87.08l4.8 3.03 -63.96 45.43 59.16 -48.46z"/>
  <path class="fil2" d="M2540.89 604.33l67.46 -43.46 75.52 47.97 0 91.31 -72.47 -48.08 -70.75 49.63 -41.47 -28.68 41.71 28.17 0 -96.86zm213.61 49.37l1.39 0.89 -13.5 8.87 12.11 -8.07 0 -1.69z"/>
  <polygon class="fil0" points="2327.41,560.27 2327.41,190.32 2613.14,0 2892.66,186.19 2892.66,556.8 2828.22,609.59 2828.22,243.17 2617.51,91.69 2397.64,236.14 2394.59,606.07 "/>
  <polygon class="fil0" points="2467.88,651.87 2467.88,285.47 2615.83,186.91 2754.5,279.28 2754.5,655.39 2683.87,702.44 2683.87,324.19 2614.63,278.07 2540.89,327.19 2540.89,701.19 "/>
 </g>
</svg>
